<?xml version="1.0" encoding="utf-8"?>
<!-- Generator: Adobe Illustrator 18.1.1, SVG Export Plug-In . SVG Version: 6.00 Build 0)  -->
<!DOCTYPE svg PUBLIC "-//W3C//DTD SVG 1.1//EN" "http://www.w3.org/Graphics/SVG/1.1/DTD/svg11.dtd">
<svg version="1.1" id="Layer_1" xmlns="http://www.w3.org/2000/svg" xmlns:xlink="http://www.w3.org/1999/xlink" x="0px" y="0px"
	 width="612px" height="792px" viewBox="0 0 612 792" enable-background="new 0 0 612 792" xml:space="preserve">
<g id="Layer_1_1_" display="none">
	<path id="shadow-base" display="inline" fill="#336B62" d="M612,609.3c0,45.4-39.5,83.5-88.4,83.5H88.4C39.5,692.8,0,654.6,0,609.3
		V204.1c0-45.5,39.5-81.8,88.4-81.8h435.3c48.9,0,88.4,36.3,88.4,81.8v405.2H612z"/>
	<path id="base" display="inline" fill="#49B29F" d="M612,598.5c0,45.4-39.5,82-88.4,82H88.4c-48.9,0-88.4-36.6-88.4-82V193.3
		c0-45.5,39.5-81.8,88.4-81.8h435.3c48.9,0,88.4,36.3,88.4,81.8v405.2H612z"/>
	<path id="disco_01_1_" display="inline" fill="#336B62" d="M527.4,396c0,122.2-99.2,221.4-221.4,221.4S84.6,518.2,84.6,396
		S183.8,174.6,306,174.6S527.4,273.8,527.4,396z"/>
	
		<circle id="detalhe-disco_1_" display="inline" fill="#FFFFFF" stroke="#2B2E31" stroke-width="0.15" stroke-miterlimit="10" cx="306" cy="396" r="7.7"/>
	<g display="inline">
		<path fill="#336B62" d="M99.9,639H72.3c-4.3,0-7.7-3.4-7.7-7.7v-23.1c0-4.3,3.4-7.7,7.7-7.7h27.7c4.3,0,7.7,3.4,7.7,7.7v23.1
			C107.6,635.6,104.3,639,99.9,639z"/>
		<path fill="#A9D7D0" d="M93.8,631.3H78.4c-2.6,0-4.6-2-4.6-4.6v-13.8c0-2.6,2-4.6,4.6-4.6h15.4c2.6,0,4.6,2,4.6,4.6v13.8
			C98.4,629.3,96.4,631.3,93.8,631.3z"/>
	</g>
</g>
<g id="_x31_" display="none">
	<path display="inline" fill="#161A1D" d="M522.8,396c0-119.8-97-216.8-216.8-216.8S89.2,276.2,89.2,396s97,216.8,216.8,216.8
		S522.8,515.8,522.8,396z M299.2,396c0-3.7,3.1-6.8,6.8-6.8c3.8,0,6.8,3.1,6.8,6.8c0,3.8-3.1,6.8-6.8,6.8
		C302.2,402.8,299.2,399.8,299.2,396z"/>
	<path display="inline" fill="#232629" enable-background="new    " d="M306,402.8L306,402.8c-3.7,0-6.8-3.1-6.8-6.8h-210
		c0,119.8,97,216.8,216.8,216.8V402.8z"/>
	<path display="inline" fill="#232629" enable-background="new    " d="M312.8,396h210c0-119.8-97-216.8-216.8-216.8v210
		C309.8,389.2,312.8,392.3,312.8,396z"/>
	<path display="inline" fill="#AC2728" stroke="#13171A" stroke-width="0.25" stroke-miterlimit="10" d="M400.4,396
		c0-52.1-42.3-94.4-94.4-94.4s-94.4,42.3-94.4,94.4s42.3,94.4,94.4,94.4S400.4,448.1,400.4,396z M299.2,396c0-3.7,3.1-6.8,6.8-6.8
		c3.8,0,6.8,3.1,6.8,6.8c0,3.8-3.1,6.8-6.8,6.8C302.2,402.8,299.2,399.8,299.2,396z"/>
	<path display="inline" fill="#BA2C30" d="M354.3,396c0-26.6-21.5-48.3-48.3-48.3c-26.6,0-48.3,21.5-48.3,48.3
		c0,26.6,21.5,48.3,48.3,48.3C332.6,444.3,354.3,422.6,354.3,396z M299.2,396c0-3.7,3.1-6.8,6.8-6.8c3.8,0,6.8,3.1,6.8,6.8
		c0,3.8-3.1,6.8-6.8,6.8C302.2,402.8,299.2,399.8,299.2,396z"/>
</g>
<g id="_x32_">
	<path fill="#161A1D" d="M306,179.2c-119.8,0-216.8,97-216.8,216.8s97,216.8,216.8,216.8s216.8-97,216.8-216.8
		S425.8,179.2,306,179.2z M306,402.8c-3.7,0-6.8-3.1-6.8-6.8c0-3.8,3.1-6.8,6.8-6.8c3.8,0,6.8,3.1,6.8,6.8
		C312.8,399.8,309.8,402.8,306,402.8z"/>
	<path fill="#232629" enable-background="new    " d="M312.8,396L312.8,396c0,3.7-3.1,6.8-6.8,6.8v210c119.8,0,216.8-97,216.8-216.8
		H312.8z"/>
	<path fill="#232629" enable-background="new    " d="M306,389.2v-210c-119.8,0-216.8,97-216.8,216.8h210
		C299.2,392.2,302.3,389.2,306,389.2z"/>
	<path fill="#AC2728" stroke="#13171A" stroke-width="0.25" stroke-miterlimit="10" d="M306,301.6c-52.1,0-94.4,42.3-94.4,94.4
		s42.3,94.4,94.4,94.4s94.4-42.3,94.4-94.4S358.1,301.6,306,301.6z M306,402.8c-3.7,0-6.8-3.1-6.8-6.8c0-3.8,3.1-6.8,6.8-6.8
		c3.8,0,6.8,3.1,6.8,6.8C312.8,399.8,309.8,402.8,306,402.8z"/>
	<path fill="#BA2C30" d="M306,347.7c-26.6,0-48.3,21.5-48.3,48.3c0,26.6,21.5,48.3,48.3,48.3c26.6,0,48.3-21.5,48.3-48.3
		C354.3,369.4,332.6,347.7,306,347.7z M306,402.8c-3.7,0-6.8-3.1-6.8-6.8c0-3.8,3.1-6.8,6.8-6.8c3.8,0,6.8,3.1,6.8,6.8
		C312.8,399.8,309.8,402.8,306,402.8z"/>
</g>
<g id="Needle" display="none">
	<g id="Botao_02">
		<g display="inline">
			<path id="base_2_" fill="#161A1D" d="M559.7,204.9c0,4.2-3.7,6.6-8,6.6h-39.2c-4.5,0-8.1-2.6-8.1-6.6v-36.6
				c0-4.2,3.7-7.5,8.1-7.5h39.2c4.5,0,8,3.5,8,7.5V204.9z"/>
		</g>
		<g display="inline">
			<defs>
				<path id="SVGID_1_" d="M559.7,204.9c0,4.2-3.7,6.6-8,6.6h-39.2c-4.5,0-8.1-2.6-8.1-6.6v-36.6c0-4.2,3.7-7.5,8.1-7.5h39.2
					c4.5,0,8,3.5,8,7.5V204.9z"/>
			</defs>
			<clipPath id="SVGID_2_">
				<use xlink:href="#SVGID_1_"  overflow="visible"/>
			</clipPath>
			<path id="base_1_" clip-path="url(#SVGID_2_)" fill="#000107" d="M562.8,186.9v-36.8c0-4.2-3.4-7.8-8.5-7.8h-44.6
				c-5.1,0-8.5,3.7-8.5,7.8v36.8H562.8z"/>
		</g>
		<g display="inline">
			<defs>
				<path id="SVGID_3_" d="M559.7,204.9c0,4.2-3.7,6.6-8,6.6h-39.2c-4.5,0-8.1-2.6-8.1-6.6v-36.6c0-4.2,3.7-7.5,8.1-7.5h39.2
					c4.5,0,8,3.5,8,7.5V204.9z"/>
			</defs>
			<clipPath id="SVGID_4_">
				<use xlink:href="#SVGID_3_"  overflow="visible"/>
			</clipPath>
			<path id="base-mini" clip-path="url(#SVGID_4_)" fill="#DDDEDD" d="M535.1,171.5c0,0.3-0.9,0-1.2,0h-3.5c-0.5,0-1.2,0.3-1.2,0
				v-3.4c0-0.3,0.9-1.2,1.2-1.2h3.5c0.5,0,1.2,0.9,1.2,1.2V171.5z"/>
		</g>
	</g>
	<g id="Agulha">
		<polygon display="inline" fill="#DDDEDC" points="529,196.1 529,308.2 460.1,374.9 465,380.3 535.1,311.6 535.1,196.1 		"/>
		<polygon display="inline" fill="#DDDEDC" points="478.2,344.3 447.5,374.2 447.5,392.9 465.6,392.9 496.2,362.8 		"/>
		<polygon id="agulha_01_1_" display="inline" fill="#EEEEED" points="456.2,373.2 454.5,371.6 475.9,350.8 477.5,352.5 		"/>
		<circle display="inline" fill="#DDDEDD" cx="532" cy="186.1" r="11.1"/>
	</g>
</g>
</svg>
